HIERARCHY
ROOT Hips
{
	OFFSET 0.00000 0.00000 0.00000
	CHANNELS 6 Xposition Yposition Zposition Zrotation Yrotation Xrotation 
	JOINT LHipJoint
	{
		OFFSET 0 0 0
		CHANNELS 3 Zrotation Yrotation Xrotation
		JOINT LeftHip
		{
			OFFSET 1.62329 -1.80800 0.67318
			CHANNELS 3 Zrotation Yrotation Xrotation
			JOINT LeftKnee
			{
				OFFSET 2.57139 -7.06484 0.00000
				CHANNELS 3 Zrotation Yrotation Xrotation
				JOINT LeftAnkle
				{
					OFFSET 2.52017 -6.92413 0.00000
					CHANNELS 3 Zrotation Yrotation Xrotation
					JOINT LeftToe
					{
						OFFSET 0.23295 -0.64001 2.10214
						CHANNELS 3 Zrotation Yrotation Xrotation
						End Site
						{
							OFFSET 0.00000 -0.00000 1.10139
						}
					}
				}
			}
		}
	}
	JOINT RHipJoint
	{
		OFFSET 0 0 0
		CHANNELS 3 Zrotation Yrotation Xrotation
		JOINT RightHip
		{
			OFFSET -1.48061 -1.80800 0.67318
			CHANNELS 3 Zrotation Yrotation Xrotation
			JOINT RightKnee
			{
				OFFSET -2.63258 -7.23296 0.00000
				CHANNELS 3 Zrotation Yrotation Xrotation
				JOINT RightAnkle
				{
					OFFSET -2.54779 -7.00000 0.00000
					CHANNELS 3 Zrotation Yrotation Xrotation
					JOINT RightToe
					{
						OFFSET -0.23067 -0.63376 2.12161
						CHANNELS 3 Zrotation Yrotation Xrotation
						End Site
						{
							OFFSET -0.00000 -0.00000 1.11000
						}
					}
				}
			}
		}
	}
	JOINT lowerback
	{
		OFFSET 0 0 0
		CHANNELS 3 Zrotation Yrotation Xrotation
		JOINT Chest
		{
			OFFSET -0.02108 2.07573 -0.16981
			CHANNELS 3 Zrotation Yrotation Xrotation
			JOINT Chest2
			{
				OFFSET 0.05070 2.08439 -0.03141
				CHANNELS 3 Zrotation Yrotation Xrotation
				JOINT lowerneck
				{
					OFFSET 0 0 0
					CHANNELS 3 Zrotation Yrotation Xrotation
					JOINT Neck
					{
						OFFSET -0.10731 1.60408 0.31370
						CHANNELS 3 Zrotation Yrotation Xrotation
						JOINT Head
						{
							OFFSET 0.08411 1.65679 -0.30822
							CHANNELS 3 Zrotation Yrotation Xrotation
							End Site
							{
								OFFSET 0.03911 1.69149 -0.14146
							}
						}
					}
				}
				JOINT LeftCollar
				{
					OFFSET 0 0 0
					CHANNELS 3 Zrotation Yrotation Xrotation
					JOINT LeftShoulder
					{
						OFFSET 3.52315 0.73219 -0.54694
CHANNELS 3 Zrotation Xrotation Yrotation
						JOINT LeftElbow
						{
OFFSET 0 -5.324620 -0.000000
CHANNELS 3 Zrotation Xrotation Yrotation
							JOINT LeftWrist
							{
OFFSET 0 -3.484020 -0.000000
CHANNELS 3 Zrotation Xrotation Yrotation
								JOINT lhand
								{
									OFFSET 0 0 0
CHANNELS 3 Zrotation Xrotation Yrotation
									JOINT LFingers
									{
OFFSET 0 -0.572480 -0.000000
CHANNELS 3 Zrotation Xrotation Yrotation
										End Site
										{
OFFSET 0 -0.461540 -0.000000
										}
									}
								}
								JOINT LThumb
								{
OFFSET 0 0.000000 0.000000
CHANNELS 3 Zrotation Xrotation Yrotation
									End Site
									{
OFFSET 0 -0.468590 0.468590
									}
								}
							}
						}
					}
				}
				JOINT RightCollar
				{
					OFFSET 0 0 0
					CHANNELS 3 Zrotation Yrotation Xrotation
					JOINT RightShoulder
					{
						OFFSET -3.41766 0.93592 -0.10019
CHANNELS 3 Zrotation Xrotation Yrotation
						JOINT RightElbow
						{
OFFSET 0 -5.335890 -0.000000
CHANNELS 3 Zrotation Xrotation Yrotation
							JOINT RightWrist
							{
OFFSET 0 -3.641340 -0.000000
CHANNELS 3 Zrotation Xrotation Yrotation
								JOINT rhand
								{
									OFFSET 0 0 0
CHANNELS 3 Zrotation Xrotation Yrotation
									JOINT RFingers
									{
OFFSET 0 -0.734810 -0.000000
CHANNELS 3 Zrotation Xrotation Yrotation
										End Site
										{
OFFSET 0 -0.592420 -0.000000
										}
									}
								}
								JOINT RThumb
								{
OFFSET 0 0.000000 0.000000
CHANNELS 3 Zrotation Xrotation Yrotation
									End Site
									{
OFFSET 0 -0.601470 0.601470
									}
								}
							}
						}
					}
				}
			}
		}
	}
}
MOTION
Frames: 9
Frame Time: 0.008333333333333333
1.113000 17.972400 0.635400 0.250400 -6.243500 7.468100 0.000000 0.000000 0.000000 -14.874600 -5.858700 -4.989800 0.589300 4.914800 13.665800 -0.413200 14.481600 -15.000200 1.337000 -7.321400 -20.671000 0.000000 0.000000 0.000000 11.874700 9.902000 -16.850100 -1.916900 -8.690900 24.833000 -0.506200 -3.451200 -15.144600 -0.036900 -1.240500 3.410800 -4.387300 -2.142200 4.511500 3.857300 -3.000400 0.298600 6.655900 -1.459600 -1.787400 -12.751200 -10.394600 -19.391300 9.705200 -12.933400 18.443400 3.478600 -5.812000 10.607600 0.000000 0.000000 0.000000 4.555000 -4.523000 -28.443800 16.951700 -26.794000 4.065500 14.107000 13.702300 -22.419500 0.000000 0.000000 0.000000 -7.125000 0.000000 0.000000 -15.192000 52.386600 2.815000 0.000000 0.000000 0.000000 -12.815200 0.633400 15.742600 -17.867000 -27.986500 -4.486700 -20.065300 16.670100 -3.737100 0.000000 0.000000 0.000000 7.125000 0.000000 -0.000000 4.967900 25.997500 2.295800
1.192717 17.976062 0.631800 0.355787 -6.572298 7.556680 0.000000 0.000000 0.000000 -15.289326 -5.579101 -5.284686 0.599562 4.956564 13.784730 -0.417276 14.458155 -14.880329 1.395882 -7.474432 -21.128655 0.000000 0.000000 0.000000 11.436121 10.214506 -16.834271 -1.881955 -8.615721 24.600418 -0.485715 -3.643205 -15.004485 -0.025258 -1.025536 2.819098 -4.416667 -2.137330 4.597032 3.782557 -2.998859 0.218455 6.600499 -1.452067 -1.921308 -13.009935 -10.343086 -19.461890 9.980389 -12.836219 18.372175 3.632784 -5.753808 10.623495 0.000000 0.000000 0.000000 4.381599 -4.193558 -27.349062 16.444158 -26.119116 3.839467 14.087913 13.769685 -22.764502 0.000000 0.000000 0.000000 -7.125000 0.000000 0.000000 -15.368355 52.719986 2.976161 0.000000 0.000000 0.000000 -12.679526 1.051671 16.179329 -18.209517 -28.424570 -4.648542 -20.024017 16.718394 -3.164550 0.000000 0.000000 0.000000 7.125000 0.000000 0.000000 5.015900 26.605222 2.246458
1.268537 17.975925 0.622683 0.675240 -7.087203 7.677348 0.000000 0.000000 0.000000 -15.905722 -4.899792 -5.816167 0.616711 5.025908 13.982455 -0.352519 13.960703 -15.002634 1.300164 -7.223800 -20.380147 0.000000 0.000000 0.000000 10.728221 10.479788 -17.014022 -1.851164 -8.548915 24.394214 -0.468255 -3.596829 -14.746140 -0.021281 -0.941404 2.587606 -4.530644 -2.088806 4.525086 3.549790 -2.942394 0.328743 6.409413 -1.430391 -1.781383 -12.812568 -10.316981 -19.653005 9.960066 -12.804255 18.136680 3.593667 -5.723091 10.552828 0.000000 0.000000 0.000000 4.439187 -4.321875 -26.461386 15.946046 -25.447334 3.622734 13.652332 13.819937 -23.017550 0.000000 0.000000 0.000000 -7.125000 0.000000 0.000000 -15.913570 52.889732 3.152984 0.000000 0.000000 0.000000 -12.383515 0.825842 16.118071 -18.313144 -28.556277 -4.698033 -20.152232 16.631287 -3.276578 0.000000 0.000000 0.000000 7.125000 0.000000 0.000000 4.915685 26.483569 2.214484
1.344872 17.980288 0.608401 0.791657 -7.526149 7.769540 0.000000 0.000000 0.000000 -16.324565 -4.622086 -6.081953 0.622001 5.047047 14.042644 -0.339171 13.933276 -15.176225 1.247305 -7.081136 -19.956007 0.000000 0.000000 0.000000 10.247591 10.892302 -17.045705 -1.812683 -8.464508 24.134258 -0.448962 -3.726734 -14.575042 -0.033059 -1.172056 3.222378 -4.416426 -2.079145 4.681258 3.450126 -2.930296 0.400551 6.243782 -1.426021 -1.807215 -12.535406 -10.188380 -19.935041 9.811603 -12.636079 18.169622 3.519427 -5.633652 10.563513 0.000000 0.000000 0.000000 4.393344 -4.620032 -25.778280 15.307481 -24.572670 3.352800 13.582882 14.314212 -23.300385 0.000000 0.000000 0.000000 -7.125000 0.000000 0.000000 -16.117079 53.151842 3.299916 0.000000 0.000000 0.000000 -12.432899 0.801189 16.372716 -18.434858 -28.710393 -4.756303 -20.323689 16.406249 -4.558378 0.000000 0.000000 0.000000 7.125000 0.000000 0.000000 4.754157 25.119039 2.293898
1.411174 17.988215 0.592136 0.631084 -8.088962 8.036905 0.000000 0.000000 0.000000 -16.390826 -4.135118 -6.718157 0.643471 5.131648 14.284476 -0.326923 13.865301 -15.250882 1.262363 -7.122063 -20.077442 0.000000 0.000000 0.000000 10.088321 11.336716 -17.223850 -1.752515 -8.330353 23.722009 -0.414404 -3.839239 -14.181390 -0.028133 -1.080494 2.970318 -4.195605 -2.068092 4.902091 3.577829 -2.907528 0.332242 6.264625 -1.407999 -2.009319 -12.873561 -10.037581 -19.711914 10.429753 -12.539935 18.487656 3.822352 -5.550853 10.699770 0.000000 0.000000 0.000000 4.183519 -4.480393 -25.890046 15.256861 -24.502685 3.331695 13.317025 13.500493 -24.123916 0.000000 0.000000 0.000000 -7.125000 0.000000 0.000000 -16.788804 53.899965 3.754883 0.000000 0.000000 0.000000 -12.813871 0.830935 17.168910 -18.720219 -29.069556 -4.894207 -21.055358 16.357597 -4.163579 0.000000 0.000000 0.000000 7.125000 0.000000 0.000000 4.210805 25.517541 1.991151
1.472708 17.987886 0.574222 1.032939 -8.712395 8.275345 0.000000 0.000000 0.000000 -17.099889 -3.800335 -7.249617 0.655218 5.177690 14.415976 -0.326501 13.890539 -15.307025 1.232287 -7.039819 -19.833441 0.000000 0.000000 0.000000 9.312457 11.396773 -17.856973 -1.755768 -8.337653 23.744468 -0.385824 -3.653163 -13.650820 -0.010745 -0.669351 1.839418 -4.431486 -1.998580 5.041587 3.486465 -2.833765 0.291865 6.307413 -1.363950 -2.132904 -12.677144 -9.924467 -19.615767 10.721390 -12.663029 19.706074 3.888950 -5.552610 11.155713 0.000000 0.000000 0.000000 4.273763 -4.527221 -27.038516 15.435367 -24.749034 3.406159 13.198466 12.962276 -23.913021 0.000000 0.000000 0.000000 -7.125000 0.000000 0.000000 -16.798355 53.675001 3.663521 0.000000 0.000000 0.000000 -13.122004 0.785308 17.492994 -19.072519 -29.508649 -5.066536 -21.371935 16.409360 -4.348441 0.000000 0.000000 0.000000 7.125000 0.000000 0.000000 3.969578 25.310449 1.895726
1.524050 17.992088 0.548693 1.173029 -9.760277 8.460289 0.000000 0.000000 0.000000 -17.552918 -3.341967 -7.493395 0.641753 5.125083 14.265720 -0.376342 14.393870 -15.452132 1.238268 -7.056318 -19.882379 0.000000 0.000000 0.000000 8.780515 12.270626 -18.216405 -1.756211 -8.338575 23.747307 -0.367957 -3.596475 -13.352745 -0.028994 -1.099116 3.021663 -4.509667 -1.876436 5.250828 3.513803 -2.681723 0.390272 6.379781 -1.288498 -2.164553 -12.418825 -9.876204 -19.259333 10.923111 -12.982568 21.464013 3.894794 -5.648072 11.790438 0.000000 0.000000 0.000000 4.308850 -4.746989 -28.478006 16.007100 -25.530277 3.649016 13.971967 12.613860 -24.266594 0.000000 0.000000 0.000000 -7.125000 0.000000 0.000000 -16.212040 54.159320 3.724324 0.000000 0.000000 0.000000 -13.554110 0.499219 18.089701 -19.792757 -30.391647 -5.426214 -21.826543 16.775338 -4.264682 0.000000 0.000000 0.000000 7.125000 0.000000 0.000000 3.628239 25.385931 1.725753
1.563158 17.986815 0.506438 1.407615 -10.727888 8.924159 0.000000 0.000000 0.000000 -17.978997 -2.901928 -8.288673 0.637696 5.109128 14.219979 -0.411641 14.622498 -15.315856 1.265948 -7.131844 -20.106433 0.000000 0.000000 0.000000 8.124429 13.063703 -19.238941 -1.807314 -8.452630 24.097515 -0.354920 -3.426575 -13.043702 -0.045328 -1.373581 3.777369 -4.505227 -1.754016 5.612732 3.598653 -2.527094 0.289631 6.478153 -1.197243 -2.490397 -12.511252 -9.925490 -18.414027 11.109777 -13.464800 23.668561 3.949400 -5.856479 12.573186 0.000000 0.000000 0.000000 4.435273 -5.198994 -30.826450 16.452116 -26.129695 3.842919 14.270524 11.866333 -24.109920 0.000000 0.000000 0.000000 -7.125000 0.000000 0.000000 -15.835960 54.062923 3.596901 0.000000 0.000000 0.000000 -14.113733 0.330377 18.613251 -20.811381 -31.607215 -5.950907 -22.677516 17.109808 -4.148585 0.000000 0.000000 0.000000 7.125000 0.000000 0.000000 2.987636 25.484153 1.413386
1.586829 17.971555 0.466663 2.790019 -12.116055 9.486767 0.000000 0.000000 0.000000 -19.687818 -2.189831 -9.030200 0.558347 4.786201 13.299787 -0.476853 14.960932 -14.888554 1.240165 -7.061501 -19.897811 0.000000 0.000000 0.000000 6.059643 13.932958 -21.194756 -1.977707 -8.819424 25.232096 -0.350001 -2.918868 -12.633915 -0.031413 -1.139596 3.133029 -5.714723 -1.769945 5.566640 3.508094 -2.626267 0.206221 7.083726 -1.231452 -2.487613 -12.569322 -9.736517 -16.939635 11.000464 -13.592024 25.689180 3.983588 -5.970701 13.100924 0.000000 0.000000 0.000000 4.346941 -5.898971 -32.117871 17.008365 -26.868715 4.091092 13.854284 10.944346 -24.507689 0.000000 0.000000 0.000000 -7.125000 0.000000 0.000000 -16.453790 54.370525 3.868331 0.000000 0.000000 0.000000 -14.864606 -0.509269 19.826073 -21.850363 -32.807436 -6.504661 -23.535156 17.054623 -3.981174 0.000000 0.000000 0.000000 7.125000 0.000000 0.000000 2.340291 25.638004 1.098326
